<svg width="200" height="200" viewBox="0 0 200 200" fill="none" xmlns="http://www.w3.org/2000/svg">
<path d="M100 200C44.8606 200 0 155.139 0 100C0 44.8606 44.8606 0 100 0C155.139 0 200 44.8606 200 100C200 155.139 155.139 200 100 200Z" fill="#0070BF"/>
<path d="M117.837 20.1647C117.295 18.7159 115.911 17.7585 114.365 17.7585H99.3457H84.3261C82.7803 17.7585 81.3969 18.718 80.8549 20.1647L79.3955 24.0683H82.9406L84.2797 21.6705C84.4674 21.3352 84.8196 21.1285 85.2034 21.1285H90.9143H90.9882L95.9209 31.0425H99.35L94.8728 21.1285H99.3436H103.829L99.35 31.0425H102.779L107.712 21.1285H107.775H113.486C113.87 21.1285 114.224 21.3352 114.41 21.6705L115.749 24.0683H119.294L117.837 20.1647Z" fill="white"/>
<path d="M59.8286 56.5887C59.7443 55.4836 60.6195 54.543 61.7266 54.543H136.65C137.765 54.543 138.64 55.4963 138.546 56.6077L133.193 119.063C139.769 118.778 144.923 118.493 147.614 118.337L143.919 45.5612C143.647 38.857 138.054 33.5594 131.247 33.5594H67.7307C60.9168 33.5594 55.3219 38.8655 55.0562 45.5739L51.5195 118.061C53.5103 118.226 58.1647 118.588 64.561 118.951L59.8286 56.5887ZM77.5476 44.7535C77.5476 42.9167 79.0365 41.4257 80.8755 41.4257H117.83C119.667 41.4257 121.158 42.9145 121.158 44.7535V45.0888C121.158 46.9257 119.669 48.4167 117.83 48.4167H80.8755C79.0386 48.4167 77.5476 46.9278 77.5476 45.0888V44.7535Z" fill="white"/>
<path d="M147.778 121.688C140.975 122.084 118.732 123.278 97.4913 123.278C75.5207 123.278 56.2559 121.821 51.3506 121.416L50.0473 148.125C49.771 153.792 54.0647 158.667 59.7967 159.197C68.6858 160.019 82.7585 160.991 99.5791 160.991C116.396 160.991 130.475 160.019 139.372 159.199C145.112 158.667 149.408 153.781 149.121 148.106L147.778 121.688ZM72.3363 147.45C68.0721 147.45 64.6156 143.994 64.6156 139.729C64.6156 135.465 68.0721 132.009 72.3363 132.009C76.6005 132.009 80.057 135.465 80.057 139.729C80.0591 143.994 76.6005 147.45 72.3363 147.45ZM126.742 147.45C122.478 147.45 119.021 143.994 119.021 139.729C119.021 135.465 122.478 132.009 126.742 132.009C131.006 132.009 134.462 135.465 134.462 139.729C134.462 143.994 131.006 147.45 126.742 147.45Z" fill="white"/>
<path d="M120.995 163.238L132.889 179.675H141.371L126.016 163.238H120.995Z" fill="white"/>
<path d="M78.1715 163.238H73.0363L57.791 179.675H66.2772L78.1715 163.238Z" fill="white"/>
<path d="M65.1099 172.897H132.92L129.942 169.51H68.0876L65.1099 172.897Z" fill="white"/>
<path d="M138.946 96.8558V105.949H120.593C114.14 105.949 109.915 102.97 109.915 102.97C103.617 98.5213 104.273 91.2628 104.273 91.2628C105.147 78.9646 115.496 78.9847 115.496 78.9847C118.936 79.022 119.908 82.4391 119.908 82.4391C121.092 81.516 120.811 79.7358 120.811 79.7358C120.791 77.408 118.936 75.86 118.936 75.86C116.697 73.1653 112.091 73.3287 112.091 73.3287C102.848 73.5695 94.5321 81.4845 94.5321 81.4845L82.9047 91.4205C75.9931 97.0077 67.7971 97.0507 67.7971 97.0507H59.9968V87.9374H66.811C66.811 87.9374 72.2979 88.6455 78.6161 83.1586L88.661 74.5327C88.661 74.5327 99.5144 64.2985 112.177 64.2985C112.177 64.2985 119.341 63.7424 125.174 69.1576C125.174 69.1576 130.025 73.4262 129.942 79.7874C129.942 79.7874 130.36 87.2093 123.913 90.6178C123.913 90.6178 121.72 92.0196 119.584 92.0196C119.584 92.0196 115.872 92.0196 115.101 88.1553C115.101 88.1553 113.372 88.8662 113.372 91.4664C113.372 91.4664 112.693 96.9074 120.507 96.9074L138.946 96.8558Z" fill="white"/>
</svg>
