<svg width="200" height="200" viewBox="0 0 200 200" fill="none" xmlns="http://www.w3.org/2000/svg">
<path d="M100 200C44.8606 200 0 155.139 0 100C0 44.8606 44.8606 0 100 0C155.139 0 200 44.8606 200 100C200 155.139 155.139 200 100 200Z" fill="#B16533"/>
<path d="M117.837 20.1647C117.295 18.7159 115.912 17.7585 114.366 17.7585H99.3466H84.327C82.7812 17.7585 81.3977 18.718 80.8557 20.1647L79.3964 24.0683H82.9414L84.2806 21.6705C84.4683 21.3352 84.8205 21.1285 85.2043 21.1285H90.9152H90.989L95.9217 31.0425H99.3508L94.8736 21.1285H99.3445H103.83L99.3508 31.0425H102.78L107.713 21.1285H107.776H113.487C113.871 21.1285 114.225 21.3352 114.41 21.6705L115.75 24.0683H119.295L117.837 20.1647Z" fill="white"/>
<path d="M59.829 56.5887C59.7446 55.4836 60.6198 54.543 61.727 54.543H136.65C137.766 54.543 138.641 55.4963 138.546 56.6077L133.194 119.063C139.769 118.778 144.923 118.493 147.614 118.337L143.919 45.5612C143.647 38.857 138.055 33.5594 131.247 33.5594H67.731C60.9172 33.5594 55.3223 38.8655 55.0565 45.5739L51.5199 118.061C53.5107 118.226 58.1651 118.588 64.5614 118.951L59.829 56.5887ZM77.548 44.7535C77.548 42.9167 79.0369 41.4257 80.8758 41.4257H117.83C119.667 41.4257 121.158 42.9145 121.158 44.7535V45.0888C121.158 46.9257 119.669 48.4167 117.83 48.4167H80.8758C79.039 48.4167 77.548 46.9278 77.548 45.0888V44.7535Z" fill="white"/>
<path d="M147.778 121.688C140.975 122.084 118.733 123.278 97.4917 123.278C75.5211 123.278 56.2563 121.821 51.351 121.416L50.0476 148.125C49.7714 153.792 54.0651 158.667 59.7971 159.197C68.6861 160.019 82.7589 160.991 99.5795 160.991C116.396 160.991 130.475 160.019 139.372 159.199C145.113 158.667 149.409 153.781 149.122 148.106L147.778 121.688ZM72.3367 147.45C68.0725 147.45 64.616 143.994 64.616 139.729C64.616 135.465 68.0725 132.009 72.3367 132.009C76.6009 132.009 80.0574 135.465 80.0574 139.729C80.0595 143.994 76.6009 147.45 72.3367 147.45ZM126.742 147.45C122.478 147.45 119.021 143.994 119.021 139.729C119.021 135.465 122.478 132.009 126.742 132.009C131.006 132.009 134.463 135.465 134.463 139.729C134.463 143.994 131.006 147.45 126.742 147.45Z" fill="white"/>
<path d="M120.996 163.238L132.89 179.675H141.372L126.017 163.238H120.996Z" fill="white"/>
<path d="M78.1721 163.238H73.0369L57.7916 179.675H66.2779L78.1721 163.238Z" fill="white"/>
<path d="M65.1105 172.897H132.92L129.942 169.51H68.0883L65.1105 172.897Z" fill="white"/>
<path fill-rule="evenodd" clip-rule="evenodd" d="M100.307 60.4865C98.8136 61.4845 97.8036 62.9886 94.0414 69.8183C91.9047 73.697 90.1006 76.9407 90.0323 77.0262C89.964 77.1121 89.2127 76.7753 88.3626 76.2782C87.5129 75.7815 86.5096 75.3811 86.1332 75.3887C84.7338 75.4178 84.6478 75.5486 76.6016 89.9067C74.4278 93.7855 71.7315 98.5939 70.6094 100.592C69.4877 102.59 68.2725 104.617 67.9096 105.096C67.5462 105.574 67.2052 106.431 67.1515 106.999C67.0046 108.553 69.5152 109.937 72.537 109.969C75.9603 110.004 85.1905 107.629 88.8097 105.782C91.0348 104.646 97.886 102.843 102.907 102.073C105.433 101.685 110.117 102.218 109.936 102.873C109.861 103.145 109.256 103.491 108.591 103.642C105.624 104.315 102.065 105.464 97.4343 107.244C92.7707 109.036 90.9319 110.239 91.4137 111.181C91.5237 111.396 94.0849 111.489 97.1969 111.391C102.191 111.235 103.102 111.086 105.79 109.99C114.112 106.595 121.896 105.773 127.265 107.722C128.278 108.09 129.36 108.274 129.668 108.131C130.373 107.804 130.095 107.127 127.546 102.961C126.534 101.305 124.622 98.0276 123.299 95.6768C121.976 93.326 120.798 91.3065 120.682 91.189C120.566 91.0714 119.66 89.5327 118.669 87.7696C113.525 78.6174 106.655 66.6481 104.732 63.487C103.78 61.9214 101.791 59.9638 101.191 60.0023C101.094 60.0087 100.696 60.2267 100.307 60.4865ZM91.8471 80.375C95.4649 73.7436 99.5264 66.5464 100.035 65.8647C100.342 65.4535 100.78 65.1167 101.008 65.1167C101.547 65.1167 102.622 66.5631 103.867 68.9634C104.416 70.0213 105.037 71.0791 105.248 71.3142C105.458 71.5493 106.217 72.7995 106.935 74.0924C107.652 75.3853 108.808 77.4049 109.502 78.5802C110.197 79.7556 111.15 81.3905 111.62 82.2133C112.091 83.036 112.799 84.1901 113.193 84.7778C114.125 86.166 114.204 87.9752 113.307 87.4076C112.967 87.1918 111.508 86.7776 110.065 86.487C105.497 85.5672 101.757 86.5507 95.3425 90.3576C90.1872 93.4175 87.8415 94.133 85.176 93.4572C81.336 92.484 79.6754 90.2747 81.3147 88.3206C81.6674 87.9 82.8599 85.8942 83.9643 83.8635C85.0688 81.8324 86.2514 80.0416 86.5924 79.8834C87.042 79.6753 87.5528 80.0745 88.4531 81.3388C89.1355 82.297 89.8533 83.0685 90.0479 83.0531C90.2424 83.0373 91.0522 81.8324 91.8471 80.375Z" fill="white"/>
</svg>
