<svg width="200" height="200" viewBox="0 0 200 200" fill="none" xmlns="http://www.w3.org/2000/svg">
<path d="M100 200C44.8606 200 0 155.139 0 100C0 44.8606 44.8606 0 100 0C155.139 0 200 44.8606 200 100C200 155.139 155.139 200 100 200Z" fill="#00AB46"/>
<path d="M117.836 20.1647C117.294 18.7159 115.911 17.7585 114.365 17.7585H99.3453H84.3257C82.7798 17.7585 81.3964 18.718 80.8544 20.1647L79.3951 24.0683H82.9401L84.2793 21.6705C84.467 21.3352 84.8192 21.1285 85.203 21.1285H90.9139H90.9877L95.9204 31.0425H99.3495L94.8723 21.1285H99.3432H103.829L99.3495 31.0425H102.779L107.711 21.1285H107.775H113.485C113.869 21.1285 114.224 21.3352 114.409 21.6705L115.748 24.0683H119.293L117.836 20.1647Z" fill="white"/>
<path d="M59.8281 56.5887C59.7437 55.4836 60.6189 54.543 61.7261 54.543H136.649C137.765 54.543 138.64 55.4963 138.545 56.6077L133.193 119.063C139.768 118.778 144.922 118.493 147.613 118.337L143.919 45.5612C143.646 38.857 138.054 33.5594 131.246 33.5594H67.7302C60.9163 33.5594 55.3214 38.8655 55.0556 45.5739L51.519 118.061C53.5098 118.226 58.1642 118.588 64.5605 118.951L59.8281 56.5887ZM77.5471 44.7535C77.5471 42.9167 79.036 41.4257 80.875 41.4257H117.829C119.666 41.4257 121.157 42.9145 121.157 44.7535V45.0888C121.157 46.9257 119.668 48.4167 117.829 48.4167H80.875C79.0381 48.4167 77.5471 46.9278 77.5471 45.0888V44.7535Z" fill="white"/>
<path d="M147.777 121.688C140.974 122.084 118.731 123.278 97.4904 123.278C75.5198 123.278 56.255 121.821 51.3497 121.416L50.0464 148.125C49.7701 153.792 54.0638 158.667 59.7958 159.197C68.6849 160.019 82.7576 160.991 99.5782 160.991C116.395 160.991 130.474 160.019 139.371 159.199C145.112 158.667 149.407 153.781 149.121 148.106L147.777 121.688ZM72.3354 147.45C68.0712 147.45 64.6147 143.994 64.6147 139.729C64.6147 135.465 68.0712 132.009 72.3354 132.009C76.5996 132.009 80.0561 135.465 80.0561 139.729C80.0582 143.994 76.5996 147.45 72.3354 147.45ZM126.741 147.45C122.477 147.45 119.02 143.994 119.02 139.729C119.02 135.465 122.477 132.009 126.741 132.009C131.005 132.009 134.462 135.465 134.462 139.729C134.462 143.994 131.005 147.45 126.741 147.45Z" fill="white"/>
<path d="M120.995 163.238L132.889 179.675H141.371L126.016 163.238H120.995Z" fill="white"/>
<path d="M78.1712 163.238H73.036L57.7908 179.675H66.277L78.1712 163.238Z" fill="white"/>
<path d="M65.1092 172.897H132.919L129.941 169.51H68.087L65.1092 172.897Z" fill="white"/>
<path d="M84.5063 124.287H100.984C109.745 118.121 109.548 104.326 105.462 87.217L108.148 86.6554L111.014 91.7103L115.491 94.5186L118.536 104.816L117.641 87.9659L112.447 80.1026L119.969 84.0343L123.73 91.1486L122.835 97.3269L129.999 83.8471L126.238 72.8011L109.223 69.8055L110.297 64.3762L121.581 66.9972L108.506 58.5723L100.626 65.3123L95.4317 58.9468L80.3869 62.5039L88.2675 67.7461H78.775L69.9989 73.9244L70.5362 84.0343L76.6257 83.8471L74.8347 80.6643L92.0287 76.3583L82.178 80.6643L76.4466 90.9614L88.0884 99.5736L87.0138 88.902L91.3123 86.6554L97.4019 86.0937C103.753 106.246 99.6469 119.111 84.5063 124.287Z" fill="white"/>
</svg>
