<svg width="200" height="200" viewBox="0 0 200 200" fill="none" xmlns="http://www.w3.org/2000/svg">
<path d="M100 200C44.8606 200 0 155.139 0 100C0 44.8606 44.8606 0 100 0C155.139 0 200 44.8606 200 100C200 155.139 155.139 200 100 200Z" fill="#EE2D24"/>
<path d="M117.837 20.1647C117.295 18.7159 115.912 17.7585 114.366 17.7585H99.3466H84.327C82.7812 17.7585 81.3977 18.718 80.8557 20.1647L79.3964 24.0683H82.9414L84.2806 21.6705C84.4683 21.3352 84.8205 21.1285 85.2043 21.1285H90.9152H90.989L95.9217 31.0425H99.3508L94.8736 21.1285H99.3445H103.83L99.3508 31.0425H102.78L107.713 21.1285H107.776H113.487C113.871 21.1285 114.225 21.3352 114.41 21.6705L115.75 24.0683H119.295L117.837 20.1647Z" fill="white"/>
<path d="M59.829 56.5887C59.7446 55.4836 60.6198 54.543 61.727 54.543H136.65C137.766 54.543 138.641 55.4963 138.546 56.6077L133.194 119.063C139.769 118.778 144.923 118.493 147.614 118.337L143.919 45.5612C143.647 38.857 138.055 33.5594 131.247 33.5594H67.731C60.9172 33.5594 55.3223 38.8655 55.0565 45.5739L51.5199 118.061C53.5107 118.226 58.1651 118.588 64.5614 118.951L59.829 56.5887ZM77.548 44.7535C77.548 42.9167 79.0369 41.4257 80.8758 41.4257H117.83C119.667 41.4257 121.158 42.9145 121.158 44.7535V45.0888C121.158 46.9257 119.669 48.4167 117.83 48.4167H80.8758C79.039 48.4167 77.548 46.9278 77.548 45.0888V44.7535Z" fill="white"/>
<path d="M147.778 121.688C140.975 122.084 118.733 123.278 97.4917 123.278C75.5211 123.278 56.2563 121.821 51.351 121.416L50.0476 148.125C49.7714 153.792 54.0651 158.667 59.7971 159.197C68.6861 160.019 82.7589 160.991 99.5795 160.991C116.396 160.991 130.475 160.019 139.372 159.199C145.113 158.667 149.409 153.781 149.122 148.106L147.778 121.688ZM72.3367 147.45C68.0725 147.45 64.616 143.994 64.616 139.729C64.616 135.465 68.0725 132.009 72.3367 132.009C76.6009 132.009 80.0574 135.465 80.0574 139.729C80.0595 143.994 76.6009 147.45 72.3367 147.45ZM126.742 147.45C122.478 147.45 119.021 143.994 119.021 139.729C119.021 135.465 122.478 132.009 126.742 132.009C131.006 132.009 134.463 135.465 134.463 139.729C134.463 143.994 131.006 147.45 126.742 147.45Z" fill="white"/>
<path d="M120.996 163.238L132.89 179.675H141.372L126.017 163.238H120.996Z" fill="white"/>
<path d="M78.1721 163.238H73.0369L57.7916 179.675H66.2779L78.1721 163.238Z" fill="white"/>
<path d="M65.1105 172.897H132.92L129.942 169.51H68.0882L65.1105 172.897Z" fill="white"/>
</svg>
