<svg width="200" height="200" viewBox="0 0 200 200" fill="none" xmlns="http://www.w3.org/2000/svg">
<path d="M100 200C44.8606 200 0 155.139 0 100C0 44.8606 44.8606 0 100 0C155.139 0 200 44.8606 200 100C200 155.139 155.139 200 100 200Z" fill="#FF8F00"/>
<path d="M117.837 20.1647C117.295 18.7159 115.911 17.7584 114.365 17.7584H99.3457H84.3261C82.7803 17.7584 81.3968 18.718 80.8548 20.1647L79.3955 24.0683H82.9405L84.2797 21.6704C84.4674 21.3351 84.8196 21.1285 85.2034 21.1285H90.9143H90.9881L95.9209 31.0424H99.3499L94.8727 21.1285H99.3436H103.829L99.3499 31.0424H102.779L107.712 21.1285H107.775H113.486C113.87 21.1285 114.224 21.3351 114.41 21.6704L115.749 24.0683H119.294L117.837 20.1647Z" fill="white"/>
<path d="M59.8285 56.5887C59.7442 55.4836 60.6194 54.543 61.7265 54.543H136.65C137.765 54.543 138.64 55.4963 138.545 56.6077L133.193 119.063C139.769 118.778 144.923 118.493 147.614 118.337L143.919 45.5612C143.647 38.857 138.054 33.5594 131.247 33.5594H67.7306C60.9167 33.5594 55.3218 38.8655 55.0561 45.5739L51.5194 118.061C53.5103 118.226 58.1646 118.588 64.5609 118.951L59.8285 56.5887ZM77.5475 44.7535C77.5475 42.9167 79.0364 41.4257 80.8754 41.4257H117.83C119.667 41.4257 121.158 42.9145 121.158 44.7535V45.0888C121.158 46.9257 119.669 48.4167 117.83 48.4167H80.8754C79.0385 48.4167 77.5475 46.9278 77.5475 45.0888V44.7535Z" fill="white"/>
<path d="M147.778 121.688C140.974 122.084 118.732 123.278 97.4908 123.278C75.5202 123.278 56.2554 121.821 51.3501 121.416L50.0468 148.125C49.7705 153.792 54.0643 158.667 59.7963 159.197C68.6853 160.019 82.758 160.991 99.5786 160.991C116.395 160.991 130.474 160.019 139.372 159.199C145.112 158.667 149.408 153.781 149.121 148.106L147.778 121.688ZM72.3358 147.45C68.0716 147.45 64.6151 143.994 64.6151 139.729C64.6151 135.465 68.0716 132.009 72.3358 132.009C76.6 132.009 80.0565 135.465 80.0565 139.729C80.0586 143.994 76.6 147.45 72.3358 147.45ZM126.741 147.45C122.477 147.45 119.021 143.994 119.021 139.729C119.021 135.465 122.477 132.009 126.741 132.009C131.006 132.009 134.462 135.465 134.462 139.729C134.462 143.994 131.006 147.45 126.741 147.45Z" fill="white"/>
<path d="M120.995 163.238L132.889 179.675H141.371L126.016 163.238H120.995Z" fill="white"/>
<path d="M78.1712 163.238H73.0361L57.7908 179.675H66.277L78.1712 163.238Z" fill="white"/>
<path d="M65.1097 172.897H132.919L129.942 169.51H68.0874L65.1097 172.897Z" fill="white"/>
<circle cx="100.006" cy="88.5745" r="17.0899" fill="white"/>
<rect x="96.9443" y="64.2859" width="6.1164" height="48.5714" fill="white"/>
<rect x="75.7171" y="91.6297" width="6.1164" height="48.5714" transform="rotate(-90 75.7171 91.6297)" fill="white"/>
<rect x="80.5036" y="103.361" width="6.1164" height="48.5714" transform="rotate(-120 80.5036 103.361)" fill="white"/>
<rect x="90.5052" y="111.127" width="6.1164" height="48.5714" transform="rotate(-150 90.5052 111.127)" fill="white"/>
<rect x="114.793" y="108.07" width="6.1164" height="48.5714" transform="rotate(150 114.793 108.07)" fill="white"/>
<rect x="122.558" y="98.0685" width="6.1164" height="48.5714" transform="rotate(120 122.558 98.0685)" fill="white"/>
</svg>
