<svg width="200" height="200" viewBox="0 0 200 200" fill="none" xmlns="http://www.w3.org/2000/svg">
<path d="M100 200C44.8606 200 0 155.139 0 100C0 44.8606 44.8606 0 100 0C155.139 0 200 44.8606 200 100C200 155.139 155.139 200 100 200Z" fill="#7BC24D"/>
<path fill-rule="evenodd" clip-rule="evenodd" d="M77.8025 39.6353V39.2967C77.8025 37.4398 79.2896 35.9347 81.1254 35.9347H118.023C119.859 35.9347 121.346 37.4398 121.346 39.2967V39.6353C121.346 41.4923 119.859 42.9973 118.023 42.9973H81.1254C79.2896 42.9973 77.8025 41.4923 77.8025 39.6353ZM147.957 49.837L147.505 41.767C147.211 35.1936 141.163 30 133.802 30H65.1291C57.7619 30 51.7103 35.2021 51.4246 41.7815L50.9793 50.0684C55.7999 49.6671 75.0607 48.1861 97.0324 48.1861C119.111 48.1861 142.287 49.4948 147.957 49.837Z" fill="white"/>
<path fill-rule="evenodd" clip-rule="evenodd" d="M134.502 141.273C130.495 141.273 127.244 137.984 127.244 133.928C127.244 129.872 130.495 126.583 134.502 126.583C138.509 126.583 141.758 129.872 141.758 133.928C141.758 137.984 138.509 141.273 134.502 141.273ZM64.6269 141.288C60.6195 141.288 57.3705 138.001 57.3705 133.944C57.3705 129.888 60.6195 126.6 64.6269 126.6C68.6355 126.6 71.8834 129.888 71.8834 133.944C71.8834 138.001 68.6355 141.288 64.6269 141.288ZM153.134 142.325L148.171 53.6558C147.075 53.5883 144.962 53.463 142.072 53.3099L143.837 114.431C143.86 115.265 143.231 115.962 142.424 115.995C130.417 116.471 113.074 117.014 96.26 117.014C80.9471 117.014 66.7521 116.5 56.5121 115.996C55.7097 115.956 55.087 115.261 55.112 114.431L56.9502 53.4244C53.9095 53.6365 51.763 53.8124 50.7736 53.898L46.0138 142.343C45.7137 147.901 50.3569 152.681 56.5538 153.2C56.8835 153.228 57.2371 153.257 57.58 153.284V164.856C57.58 164.856 57.7824 169.844 62.5077 169.844H66.989C71.7143 169.844 71.9215 164.856 71.9215 164.856V154.237C79.8553 154.652 89.2298 154.96 99.5674 154.96C110.035 154.96 119.513 154.643 127.515 154.222V164.856C127.515 164.856 127.719 169.844 132.442 169.844H136.924C141.649 169.844 141.856 164.856 141.856 164.856V153.261C142.1 153.241 142.357 153.222 142.594 153.201C148.802 152.681 153.446 147.889 153.134 142.325Z" fill="white"/>
<path d="M87.0772 100H66.9972V95.52C77.9172 87.48 81.1172 84.72 81.1172 81.44C81.1172 79.12 78.9972 77.96 76.7572 77.96C73.7572 77.96 71.4372 79.16 69.6372 81.04L66.3972 77.28C68.9972 74.28 72.9572 72.92 76.6772 72.92C82.3572 72.92 86.8772 76.12 86.8772 81.44C86.8772 86 83.1172 89.96 75.9572 95H87.0772V100ZM111.062 100H90.9816V95.52C101.902 87.48 105.102 84.72 105.102 81.44C105.102 79.12 102.982 77.96 100.742 77.96C97.7416 77.96 95.4216 79.16 93.6216 81.04L90.3816 77.28C92.9816 74.28 96.9416 72.92 100.662 72.92C106.342 72.92 110.862 76.12 110.862 81.44C110.862 86 107.102 89.96 99.9416 95H111.062V100ZM124.166 100H117.926L127.486 78.32H114.046V73.32H134.086V77.28L124.166 100Z" fill="white"/>
<path d="M98.7804 139.6C98.5573 141.119 100.462 141.981 101.456 140.812L102.788 139.245C103.708 138.163 102.939 136.5 101.519 136.5H101.32C100.42 136.5 99.7248 135.709 99.841 134.816C100.042 133.272 98.0408 132.492 97.1433 133.764L95.9814 135.41C95.2578 136.435 96.0054 137.85 97.2602 137.85C98.1925 137.85 98.9159 138.678 98.7804 139.6ZM96.4637 150C95.4282 150 94.6337 149.081 94.7827 148.057L95.504 143.1C95.6996 141.755 94.6572 140.55 93.2986 140.55C91.492 140.55 90.4361 138.513 91.4771 137.037L100.878 123.705C101.19 123.263 101.697 123 102.237 123C103.239 123 104.013 123.879 103.887 124.873L103.109 130.981C102.918 132.477 104.084 133.8 105.592 133.8C107.725 133.8 108.881 136.297 107.501 137.923L97.7588 149.401C97.436 149.781 96.9625 150 96.4637 150Z" fill="#7BC24D"/>
<path d="M98.7804 139.6C98.5573 141.119 100.462 141.981 101.456 140.812L102.788 139.245C103.708 138.163 102.939 136.5 101.519 136.5H101.32C100.42 136.5 99.7248 135.709 99.841 134.816C100.042 133.272 98.0408 132.492 97.1433 133.764L95.9814 135.41C95.2578 136.435 96.0054 137.85 97.2602 137.85C98.1925 137.85 98.9159 138.678 98.7804 139.6Z" fill="#7BC24D"/>
</svg>
