<svg width="200" height="200" viewBox="0 0 200 200" fill="none" xmlns="http://www.w3.org/2000/svg">
<path d="M100 200C44.8606 200 0 155.139 0 100C0 44.8606 44.8606 0 100 0C155.139 0 200 44.8606 200 100C200 155.139 155.139 200 100 200Z" fill="#EE2D24"/>
<path fill-rule="evenodd" clip-rule="evenodd" d="M77.8026 39.6353V39.2967C77.8026 37.4398 79.2896 35.9347 81.1254 35.9347H118.023C119.859 35.9347 121.346 37.4398 121.346 39.2967V39.6353C121.346 41.4923 119.859 42.9973 118.023 42.9973H81.1254C79.2896 42.9973 77.8026 41.4923 77.8026 39.6353ZM147.957 49.837L147.505 41.767C147.211 35.1936 141.163 30 133.802 30H65.1291C57.7619 30 51.7103 35.2021 51.4246 41.7815L50.9793 50.0684C55.7999 49.6671 75.0607 48.1861 97.0324 48.1861C119.111 48.1861 142.287 49.4948 147.957 49.837Z" fill="white"/>
<path fill-rule="evenodd" clip-rule="evenodd" d="M134.502 141.273C130.495 141.273 127.244 137.984 127.244 133.928C127.244 129.872 130.495 126.583 134.502 126.583C138.509 126.583 141.758 129.872 141.758 133.928C141.758 137.984 138.509 141.273 134.502 141.273ZM64.6269 141.288C60.6195 141.288 57.3705 138.001 57.3705 133.944C57.3705 129.888 60.6195 126.6 64.6269 126.6C68.6355 126.6 71.8834 129.888 71.8834 133.944C71.8834 138.001 68.6355 141.288 64.6269 141.288ZM153.134 142.325L148.171 53.6558C147.075 53.5883 144.962 53.463 142.072 53.3099L143.837 114.431C143.86 115.265 143.231 115.962 142.424 115.995C130.417 116.471 113.074 117.014 96.26 117.014C80.9471 117.014 66.7521 116.5 56.5121 115.996C55.7097 115.956 55.087 115.261 55.112 114.431L56.9502 53.4244C53.9095 53.6365 51.763 53.8124 50.7736 53.898L46.0138 142.343C45.7137 147.901 50.3569 152.681 56.5538 153.2C56.8835 153.228 57.2371 153.257 57.58 153.284V164.856C57.58 164.856 57.7824 169.844 62.5077 169.844H66.989C71.7143 169.844 71.9215 164.856 71.9215 164.856V154.237C79.8553 154.652 89.2298 154.96 99.5674 154.96C110.035 154.96 119.513 154.643 127.515 154.222V164.856C127.515 164.856 127.719 169.844 132.442 169.844H136.924C141.649 169.844 141.856 164.856 141.856 164.856V153.261C142.1 153.241 142.357 153.222 142.594 153.201C148.802 152.681 153.446 147.889 153.134 142.325Z" fill="white"/>
<path d="M86.0616 100H65.9816V95.52C76.9016 87.48 80.1016 84.72 80.1016 81.44C80.1016 79.12 77.9816 77.96 75.7416 77.96C72.7416 77.96 70.4216 79.16 68.6216 81.04L65.3816 77.28C67.9816 74.28 71.9416 72.92 75.6616 72.92C81.3416 72.92 85.8616 76.12 85.8616 81.44C85.8616 86 82.1016 89.96 74.9416 95H86.0616V100ZM88.8859 96.2L91.8459 92.48C93.6859 94.4 96.6059 95.52 99.2059 95.52C102.446 95.52 104.246 94.12 104.246 92.08C104.246 89.92 102.606 88.92 98.8859 88.92C97.7659 88.92 95.9659 88.92 95.5659 88.96V84C96.0459 84.04 97.8459 84.04 98.8859 84.04C101.846 84.04 103.806 83.08 103.806 81.08C103.806 78.96 101.646 77.88 98.8459 77.88C96.2459 77.88 93.9259 78.88 92.0459 80.68L89.2459 77.16C91.4059 74.72 94.7659 72.92 99.4459 72.92C105.686 72.92 109.526 75.72 109.526 80.16C109.526 83.52 106.646 85.72 103.686 86.24C106.406 86.52 109.926 88.64 109.926 92.64C109.926 97.24 105.806 100.48 99.4059 100.48C94.4859 100.48 90.8459 98.6 88.8859 96.2ZM113.523 96.48L116.643 92.64C118.483 94.52 120.963 95.52 123.763 95.52C126.923 95.52 128.723 93.72 128.723 91.52C128.723 89.08 126.963 87.44 123.923 87.44C121.723 87.44 119.923 88.12 118.323 89.64L114.363 88.56V73.32H132.682V78.2H119.923V84.88C121.323 83.64 123.483 82.68 125.923 82.68C130.443 82.68 134.483 85.88 134.483 91.28C134.483 96.92 130.243 100.48 123.803 100.48C119.163 100.48 115.803 98.96 113.523 96.48Z" fill="white"/>
</svg>
