<svg width="200" height="200" viewBox="0 0 200 200" fill="none" xmlns="http://www.w3.org/2000/svg">
<path d="M100 200C44.8606 200 0 155.139 0 100C0 44.8606 44.8606 0 100 0C155.139 0 200 44.8606 200 100C200 155.139 155.139 200 100 200Z" fill="#293490"/>
<path fill-rule="evenodd" clip-rule="evenodd" d="M77.8025 39.6353V39.2967C77.8025 37.4398 79.2895 35.9347 81.1254 35.9347H118.023C119.859 35.9347 121.346 37.4398 121.346 39.2967V39.6353C121.346 41.4923 119.859 42.9973 118.023 42.9973H81.1254C79.2895 42.9973 77.8025 41.4923 77.8025 39.6353ZM147.957 49.837L147.505 41.767C147.211 35.1936 141.163 30 133.802 30H65.1291C57.7619 30 51.7103 35.2021 51.4245 41.7815L50.9793 50.0684C55.7998 49.6671 75.0607 48.1861 97.0324 48.1861C119.111 48.1861 142.287 49.4948 147.957 49.837Z" fill="white"/>
<path fill-rule="evenodd" clip-rule="evenodd" d="M134.502 141.273C130.495 141.273 127.244 137.984 127.244 133.928C127.244 129.872 130.495 126.583 134.502 126.583C138.509 126.583 141.758 129.872 141.758 133.928C141.758 137.984 138.509 141.273 134.502 141.273ZM64.6269 141.288C60.6195 141.288 57.3705 138.001 57.3705 133.944C57.3705 129.888 60.6195 126.6 64.6269 126.6C68.6355 126.6 71.8834 129.888 71.8834 133.944C71.8834 138.001 68.6355 141.288 64.6269 141.288ZM153.134 142.325L148.171 53.6558C147.075 53.5883 144.962 53.463 142.072 53.3099L143.837 114.431C143.86 115.265 143.231 115.962 142.424 115.995C130.417 116.471 113.074 117.014 96.26 117.014C80.9471 117.014 66.7521 116.5 56.5121 115.996C55.7097 115.956 55.087 115.261 55.112 114.431L56.9502 53.4244C53.9095 53.6365 51.763 53.8124 50.7736 53.898L46.0138 142.343C45.7137 147.901 50.3569 152.681 56.5538 153.2C56.8835 153.228 57.2371 153.257 57.58 153.284V164.856C57.58 164.856 57.7824 169.844 62.5077 169.844H66.989C71.7143 169.844 71.9215 164.856 71.9215 164.856V154.237C79.8553 154.652 89.2298 154.96 99.5674 154.96C110.035 154.96 119.513 154.643 127.515 154.222V164.856C127.515 164.856 127.719 169.844 132.442 169.844H136.924C141.649 169.844 141.856 164.856 141.856 164.856V153.261C142.1 153.241 142.357 153.222 142.594 153.201C148.802 152.681 153.446 147.889 153.134 142.325Z" fill="white"/>
<path d="M86.3077 100H66.2277V95.52C77.1477 87.48 80.3477 84.72 80.3477 81.44C80.3477 79.12 78.2277 77.96 75.9877 77.96C72.9877 77.96 70.6677 79.16 68.8677 81.04L65.6277 77.28C68.2277 74.28 72.1877 72.92 75.9077 72.92C81.5877 72.92 86.1077 76.12 86.1077 81.44C86.1077 86 82.3477 89.96 75.1877 95H86.3077V100ZM110.292 100H90.212V95.52C101.132 87.48 104.332 84.72 104.332 81.44C104.332 79.12 102.212 77.96 99.972 77.96C96.972 77.96 94.652 79.16 92.852 81.04L89.612 77.28C92.212 74.28 96.172 72.92 99.892 72.92C105.572 72.92 110.092 76.12 110.092 81.44C110.092 86 106.332 89.96 99.172 95H110.292V100ZM114.276 96.48L117.396 92.64C119.236 94.52 121.716 95.52 124.516 95.52C127.676 95.52 129.476 93.72 129.476 91.52C129.476 89.08 127.716 87.44 124.676 87.44C122.476 87.44 120.676 88.12 119.076 89.64L115.116 88.56V73.32H133.436V78.2H120.676V84.88C122.076 83.64 124.236 82.68 126.676 82.68C131.196 82.68 135.236 85.88 135.236 91.28C135.236 96.92 130.996 100.48 124.556 100.48C119.916 100.48 116.556 98.96 114.276 96.48Z" fill="white"/>
</svg>
