<svg width="200" height="200" viewBox="0 0 200 200" fill="none" xmlns="http://www.w3.org/2000/svg">
<path d="M100.015 0C155.253 0 200 44.7975 200 100C200 155.23 155.253 200 100.015 200C44.777 200 0 155.227 0 100C0 44.7975 44.777 0 100.015 0ZM153.258 138.903V92.1373V52.9021C153.258 45.9462 145.215 42.6844 145.215 42.6844C145.215 42.6844 133.484 39.0266 123.477 38.7848L106.122 38.3313L111.746 26.179H118.73C119.577 26.179 120 27.0526 120 27.0526L121.542 29.8942H125.865C125.865 29.8942 124.747 26.6294 123.87 25.0877C122.993 23.5762 121.3 22.2763 121.3 22.2763L118.005 22.0647H102.615H100.438H84.9886L81.7234 22.2763C81.7234 22.2763 80 23.5762 79.1534 25.0877C78.2766 26.6294 77.158 29.8942 77.158 29.8942H81.5117L83.0537 27.0526C83.0537 27.0526 83.4467 26.179 84.3537 26.179H91.3076L97.5057 38.3313H96.9615L82.842 38.7848C70.8995 38.5732 58.322 42.4728 58.322 42.4728L57.8685 42.6844C57.8685 42.6844 49.8262 45.9462 49.8262 52.9021V92.1373V138.903C49.8262 138.903 51.7914 148.035 59.6221 148.035H73.3182V153.446H67.0295L64.6107 159.308H70.4762L67.2411 166.472H61.3757L58.5336 172.337H64.8526L61.3757 179.29H68.5412L71.7763 172.337H94.6032H108.511H131.308L134.543 179.29H141.738L138.262 172.337H144.55L141.738 166.472H135.843L132.577 159.308H138.473L136.085 153.446H129.796V148.035H143.492C151.293 148.035 153.258 138.903 153.258 138.903Z" fill="#565A5C"/>
<path d="M153.239 92.1407V138.906C153.239 138.906 151.274 148.039 143.475 148.039H129.781V153.45H136.069L138.457 159.311H132.562L135.827 166.476H141.722L144.533 172.34H138.245L141.722 179.293H134.527L131.293 172.34H108.499H94.5936H71.7702L68.5356 179.293H61.3711L64.8476 172.34H58.5295L61.3711 166.476H67.2357L70.4703 159.311H64.6057L67.0241 153.45H73.3119V148.039H59.6178C51.7883 148.039 49.8234 138.906 49.8234 138.906V92.1407H55.0531C55.0531 95.59 57.8343 98.3983 61.3107 98.3983H141.873C145.289 98.3983 148.13 95.5869 148.13 92.1407H153.239ZM148.221 124.094C148.221 119.982 144.926 116.657 140.815 116.657C136.673 116.657 133.378 120.01 133.378 124.094C133.378 128.205 136.673 131.53 140.815 131.53C144.926 131.53 148.221 128.205 148.221 124.094ZM128.814 166.173L125.549 159.009H108.409H94.8959H77.7556L74.4908 166.173H94.0193H109.255H128.814ZM123.161 153.205V147.794H80.1438V153.205H123.161ZM69.9564 124.094C69.9564 120.01 66.6311 116.657 62.4896 116.657C58.3784 116.657 55.0531 119.982 55.0531 124.094C55.0531 128.205 58.3784 131.53 62.4896 131.53C66.6311 131.53 69.9564 128.205 69.9564 124.094Z" fill="white"/>
<path d="M153.24 52.9017V92.1369H148.131V67.1067C148.131 63.6605 145.289 60.8794 141.873 60.8794H61.3109C57.8647 60.8794 55.0533 63.6605 55.0533 67.1067V92.1369H49.8235V52.9017C49.8235 45.9458 57.8647 42.6841 57.8647 42.6841L58.3181 42.4725C58.3181 42.4725 70.8937 38.5728 82.8344 38.7844L96.9517 38.331H97.4958L91.2988 26.1786H84.3459C83.439 26.1786 83.046 27.0523 83.046 27.0523L81.5043 29.8939H77.1512C77.1512 29.8939 78.2697 26.629 79.1464 25.0873C79.9928 23.5758 81.7159 22.276 81.7159 22.276L84.9807 22.0643H100.428H102.605H117.992L121.287 22.276C121.287 22.276 122.98 23.5758 123.856 25.0873C124.733 26.629 125.851 29.8939 125.851 29.8939H121.529L119.987 27.0523C119.987 27.0523 119.564 26.1786 118.717 26.1786H111.734L106.111 38.331L123.463 38.7844C133.469 39.0263 145.198 42.6841 145.198 42.6841C145.198 42.6841 153.24 45.9458 153.24 52.9017ZM126.396 49.8455C126.396 46.7016 123.826 44.1048 120.652 44.1048H81.7764C78.6023 44.1048 76.0025 46.7016 76.0025 49.8455C76.0025 53.0226 78.6023 55.5891 81.7764 55.5891H120.652C123.826 55.5922 126.396 53.0226 126.396 49.8455ZM102.091 37.3636L107.321 25.8461H102.756H100.579H96.0146L101.184 37.3636H102.091Z" fill="white"/>
<path d="M148.121 67.109V92.1393C148.121 95.5885 145.28 98.3968 141.864 98.3968H61.3014C57.825 98.3968 55.0439 95.5854 55.0439 92.1393V67.109C55.0439 63.6628 57.8552 60.8817 61.3014 60.8817H141.864C145.28 60.8847 148.121 63.6659 148.121 67.109Z" fill="#565A5C"/>
<path d="M140.807 116.651C144.918 116.651 148.213 119.976 148.213 124.088C148.213 128.199 144.918 131.524 140.807 131.524C136.666 131.524 133.371 128.199 133.371 124.088C133.371 120.003 136.666 116.651 140.807 116.651Z" fill="#565A5C"/>
<path d="M125.543 159.006L128.808 166.17H109.249H94.0135H74.485L77.7498 159.006H94.8901H108.403H125.543Z" fill="#565A5C"/>
<path d="M120.641 44.1063C123.815 44.1063 126.384 46.7031 126.384 49.847C126.384 53.0241 123.815 55.5906 120.641 55.5906H81.7654C78.5913 55.5906 75.9915 53.0211 75.9915 49.847C75.9915 46.7031 78.5913 44.1063 81.7654 44.1063H120.641Z" fill="#565A5C"/>
<path d="M123.151 147.789H80.134V153.2H123.151V147.789Z" fill="#565A5C"/>
<path d="M107.309 25.8499L102.08 37.3674H101.173L96.0035 25.8499H100.568H102.745H107.309Z" fill="#565A5C"/>
<path d="M62.4804 116.651C66.6219 116.651 69.9471 120.003 69.9471 124.088C69.9471 128.199 66.6219 131.524 62.4804 131.524C58.3692 131.524 55.0439 128.199 55.0439 124.088C55.0439 119.976 58.3692 116.651 62.4804 116.651Z" fill="#565A5C"/>
<path d="M89.5268 90.5581C89.5268 90.5581 77.1682 81.0093 93.1598 70.1672C93.1598 70.1672 103.758 63.4009 120.002 66.5513C113.885 68.6004 112.162 78.2221 112.162 78.2221C111.294 84.2384 108.926 87.9241 108.926 87.9241C104.485 96.3131 94.0693 93.3801 94.0693 93.3801C92.9317 100.241 86.971 104.287 86.971 104.287L81.4303 99.6278C81.4303 99.6278 91.3741 98.6632 93.7625 85.925C93.7625 85.925 94.7237 78.2303 100.403 75.1718C100.403 75.1718 94.7236 76.9338 92.897 82.8639C92.897 82.8639 91.2585 88.9835 89.5275 90.5586" fill="white"/>
<circle cx="101.431" cy="124.285" r="16.5714" stroke="#565A5C" stroke-width="4"/>
<rect x="85.7182" y="115.716" width="31.4286" height="5.71429" fill="#565A5C"/>
<rect x="104.288" y="120" width="20" height="5.71428" transform="rotate(90 104.288 120)" fill="#565A5C"/>
</svg>
