<svg width="200" height="200" viewBox="0 0 200 200" fill="none" xmlns="http://www.w3.org/2000/svg">
<path d="M100 200C44.8606 200 0 155.139 0 100C0 44.8606 44.8606 0 100 0C155.139 0 200 44.8606 200 100C200 155.139 155.139 200 100 200Z" fill="#E85D98"/>
<path fill-rule="evenodd" clip-rule="evenodd" d="M77.8026 39.6353V39.2967C77.8026 37.4398 79.2896 35.9347 81.1254 35.9347H118.023C119.859 35.9347 121.346 37.4398 121.346 39.2967V39.6353C121.346 41.4923 119.859 42.9973 118.023 42.9973H81.1254C79.2896 42.9973 77.8026 41.4923 77.8026 39.6353ZM147.957 49.837L147.505 41.767C147.211 35.1936 141.163 30 133.802 30H65.1291C57.7619 30 51.7103 35.2021 51.4246 41.7815L50.9793 50.0684C55.7999 49.6671 75.0607 48.1861 97.0325 48.1861C119.111 48.1861 142.287 49.4948 147.957 49.837Z" fill="white"/>
<path fill-rule="evenodd" clip-rule="evenodd" d="M134.502 141.273C130.495 141.273 127.244 137.984 127.244 133.928C127.244 129.872 130.495 126.583 134.502 126.583C138.509 126.583 141.758 129.872 141.758 133.928C141.758 137.984 138.509 141.273 134.502 141.273ZM64.6269 141.288C60.6195 141.288 57.3705 138.001 57.3705 133.944C57.3705 129.888 60.6195 126.6 64.6269 126.6C68.6355 126.6 71.8834 129.888 71.8834 133.944C71.8834 138.001 68.6355 141.288 64.6269 141.288ZM153.134 142.325L148.171 53.6558C147.075 53.5883 144.962 53.463 142.072 53.3099L143.837 114.431C143.86 115.265 143.231 115.962 142.424 115.995C130.417 116.471 113.074 117.014 96.26 117.014C80.9471 117.014 66.7521 116.5 56.5121 115.996C55.7097 115.956 55.087 115.261 55.112 114.431L56.9502 53.4244C53.9095 53.6365 51.763 53.8124 50.7736 53.898L46.0138 142.343C45.7137 147.901 50.3569 152.681 56.5538 153.2C56.8835 153.228 57.2371 153.257 57.58 153.284V164.856C57.58 164.856 57.7824 169.844 62.5077 169.844H66.989C71.7143 169.844 71.9215 164.856 71.9215 164.856V154.237C79.8553 154.652 89.2298 154.96 99.5674 154.96C110.035 154.96 119.513 154.643 127.515 154.222V164.856C127.515 164.856 127.719 169.844 132.442 169.844H136.924C141.649 169.844 141.856 164.856 141.856 164.856V153.261C142.1 153.241 142.357 153.222 142.594 153.201C148.802 152.681 153.446 147.889 153.134 142.325Z" fill="white"/>
<path d="M132.737 99H116.737C112.967 99 110.217 98.6577 108.326 97.9538C106.187 97.0901 103.975 95.1675 105.512 90.8777L112.211 72.1731C112.719 70.7515 113.737 70 115.155 70C116.728 70 117.198 70.0746 117.414 70.1322C117.981 70.3207 118.232 70.6481 118.35 70.8902C118.564 71.3298 118.55 71.8723 118.306 72.5474L111.602 91.2808C111.445 91.7188 111.445 92.0666 111.601 92.3441C111.851 92.7909 112.542 93.1476 113.602 93.3771C113.997 93.4882 115.1 93.6607 118.497 93.6607H134.224C134.905 93.6607 135.404 93.8775 135.709 94.306C136.103 94.8584 136.096 95.6773 135.693 96.8098C135.178 98.2436 134.155 99 132.737 99Z" fill="white"/>
<path d="M84.515 100H65.9861C65.1855 100 64.6102 99.7654 64.2808 99.3014C63.9268 98.8067 63.9076 98.1116 64.2227 97.2363C64.569 96.2717 64.92 95.605 65.2967 95.1984C65.8671 94.5926 66.6367 94.287 67.5868 94.287H86.1241C90.7349 94.287 93.4688 93.4596 94.032 91.8939L94.9595 89.3182C95.1179 88.8737 95.0085 88.6373 94.9128 88.499C94.6126 88.0622 93.4891 87.3092 89.3524 87.1715L80.5607 86.8783C80.1421 86.8606 79.5597 86.8311 78.8051 86.7891C78.0541 86.7465 77.1356 86.6815 76.0497 86.5923C74.0334 86.3482 72.4662 85.6366 71.3647 84.474C70.1018 83.1182 69.8525 81.3545 70.6209 79.225L71.4269 76.9808C72.7424 73.3235 75.6341 70.886 80.0219 69.7341C82.0909 69.2388 85.492 69 90.4323 69C91.1636 69 91.7 69.2329 92.0265 69.6892C92.4463 70.2761 92.4415 71.1449 92.0109 72.3429C91.6007 73.4813 90.8766 74.2195 89.8595 74.5327C89.6861 74.6072 89.3548 74.6734 87.299 74.6734C81.8355 74.6734 78.6143 75.6025 77.9853 77.3602L77.239 79.423C77.0638 79.9129 77.1948 80.1393 77.2379 80.2132C77.4561 80.5891 78.1318 80.9023 79.1411 81.0921C79.5011 81.1719 80.0554 81.2298 80.8082 81.2688C81.5808 81.3066 82.5507 81.3267 83.6856 81.3267H90.8455C94.4111 81.3267 97.0021 81.793 98.7684 82.7505C101.676 84.1785 102.653 86.5273 101.572 89.5321L100.618 92.1971C100.018 93.8603 99.2701 95.1895 98.3965 96.1482C96.0412 98.7405 91.5009 100 84.515 100Z" fill="white"/>
</svg>
