<svg width="200" height="200" viewBox="0 0 200 200" fill="none" xmlns="http://www.w3.org/2000/svg">
<path d="M200 100C200 155.23 155.227 200 100.002 200C44.7734 200 0 155.23 0 100C0 44.7696 44.7734 1.52588e-05 100.002 1.52588e-05C155.227 1.52588e-05 200 44.7696 200 100Z" fill="#00459D"/>
<path d="M124.901 152.367L138.737 171.484H148.602L130.744 152.367H124.901Z" fill="white"/>
<path d="M75.1009 152.367H69.1269L51.3951 171.484H61.2656L75.1009 152.367Z" fill="white"/>
<path d="M73.3131 158.761H126.548L124.207 155.323H75.6491L73.3131 158.761Z" fill="white"/>
<path d="M129.442 165.089H70.2918L67.9558 168.527H131.778L129.442 165.089Z" fill="white"/>
<path d="M146.508 110.367C146.503 109.976 146.405 109.616 146.244 109.289C146.195 109.177 146.103 109.099 146.035 108.996C145.903 108.796 145.766 108.596 145.586 108.435C145.479 108.343 145.347 108.284 145.225 108.211C145.113 108.138 144.996 108.079 144.874 108.026C144.791 107.992 144.723 107.933 144.635 107.904C144.489 107.85 144.333 107.84 144.177 107.816C144.157 107.811 144.133 107.811 144.108 107.811C143.845 107.772 143.582 107.714 143.304 107.753C140.319 108.167 121.948 110.181 120.832 110.274C119.369 110.391 118.232 111.542 118.232 112.937V121.374C118.232 121.978 117.984 122.51 117.628 122.959C117.111 123.602 116.335 124.046 115.418 124.046H84.5828C83.6659 124.046 82.8905 123.602 82.3785 122.959C82.0176 122.51 81.7689 121.978 81.7689 121.374V112.937C81.7689 111.542 80.6375 110.391 79.1696 110.274C75.8144 110.006 58.302 107.962 56.8341 107.757C56.5317 107.714 56.244 107.767 55.9612 107.816C55.9368 107.821 55.9173 107.826 55.8929 107.826C55.7612 107.85 55.6247 107.86 55.5028 107.904C55.3662 107.948 55.254 108.031 55.1272 108.094C55.0541 108.133 54.9809 108.167 54.9127 108.206C54.7908 108.284 54.6591 108.343 54.5518 108.435C54.3713 108.591 54.2348 108.791 54.0983 108.991C54.0349 109.089 53.9422 109.172 53.8886 109.279C53.7325 109.606 53.6301 109.967 53.6252 110.357L53.2156 133.829C53.1912 135.185 54.2348 136.341 55.6491 136.521L64.4662 137.667C65.1538 137.755 65.7537 138.077 66.1877 138.54C66.6217 139.003 66.8851 139.608 66.8997 140.267L66.9826 144.49C66.9924 144.958 67.1143 145.397 67.2606 145.826C67.3581 146.104 67.4947 146.353 67.641 146.602C67.9336 147.104 68.3091 147.533 68.7626 147.899C69.4258 148.435 70.1964 148.855 71.1034 148.991L99.5592 153.302C99.8518 153.346 100.149 153.346 100.447 153.302L130.619 148.728C131.292 148.63 131.877 148.304 132.297 147.845C132.716 147.387 132.975 146.787 132.989 146.143L133.101 140.267C133.116 139.608 133.379 139.003 133.813 138.54C134.247 138.077 134.847 137.755 135.535 137.667L142.109 136.814C144.806 136.463 146.805 134.263 146.771 131.678L146.508 110.367Z" fill="white"/>
<path d="M106.007 63.3337C107.928 63.3337 109.484 64.8895 109.484 66.8109C109.484 68.7324 107.928 70.2881 106.007 70.2881C104.085 70.2881 102.53 68.7324 102.53 66.8109C102.53 64.8895 104.085 63.3337 106.007 63.3337ZM94.0099 70.2881C92.0884 70.2881 90.5328 68.7324 90.5328 66.8109C90.5328 64.8895 92.0884 63.3337 94.0099 63.3337C95.9313 63.3337 97.487 64.8895 97.487 66.8109C97.487 68.7324 95.9313 70.2881 94.0099 70.2881ZM98.316 40.9148V59.3737H68.9678C69.4945 62.6168 69.9529 65.421 70.2845 67.4693C70.6503 69.7322 70.8746 71.0831 70.8746 71.1026C70.9331 71.4293 75.5856 83.9141 75.5856 83.9141C75.6148 84.0214 75.6636 84.1238 75.727 84.2164C76.4536 85.226 77.5948 85.8258 78.8042 85.8258H78.814C79.4333 85.8258 120.622 85.8258 121.242 85.8258H121.251C122.461 85.8258 123.602 85.226 124.329 84.2164C124.392 84.1238 124.441 84.0214 124.475 83.9141C124.475 83.9141 129.181 71.2586 129.21 70.8392C129.21 70.8197 129.215 70.7953 129.22 70.7709L129.752 67.4742L131.063 59.3737H101.744V40.9148H134.048L136.16 27.879C130.171 24.948 122.768 22.7339 114.507 21.5293L114.502 21.5634C110.171 20.9148 105.241 20.5442 100.003 20.5442C94.7902 20.5442 89.8744 20.9099 85.5536 21.5586V21.5244C77.268 22.7339 69.8456 24.9529 63.8521 27.9034C64.4763 31.761 65.2127 36.272 65.9637 40.9148H98.316Z" fill="white"/>
<path d="M59.6752 77.064C60.4116 76.6153 61.2797 76.3519 62.2062 76.3519C64.9031 76.3519 67.0879 78.5368 67.0879 81.2288C67.0879 83.794 65.103 85.8959 62.5866 86.091C62.4598 86.1008 62.333 86.1105 62.2062 86.1105C60.592 86.1105 59.1632 85.3205 58.2756 84.111C57.9489 83.6672 57.6904 83.16 57.5295 82.6138C57.3978 82.1749 57.3246 81.7116 57.3246 81.2288C57.3246 79.4634 58.2707 77.9223 59.6752 77.064ZM69.3702 87.4907C71.3843 87.4907 73.0131 89.1195 73.0131 91.1337C73.0131 93.143 71.3843 94.7767 69.3702 94.7767C67.361 94.7767 65.7273 93.143 65.7273 91.1337C65.7273 89.1195 67.361 87.4907 69.3702 87.4907ZM123.648 101.263H123.658C123.653 101.263 123.653 101.263 123.648 101.263ZM124.76 101.551H124.77C124.765 101.551 124.765 101.551 124.76 101.551ZM130.627 87.4907H130.632C132.646 87.4907 134.275 89.1195 134.275 91.1337C134.275 93.143 132.646 94.7767 130.632 94.7767H130.627C128.618 94.7767 126.984 93.143 126.984 91.1337C126.984 89.1195 128.618 87.4907 130.627 87.4907ZM137.791 76.3519C138.722 76.3519 139.59 76.6153 140.327 77.064C141.736 77.9223 142.677 79.4634 142.677 81.2288C142.677 81.7116 142.604 82.1749 142.473 82.6138C142.312 83.16 142.058 83.6672 141.726 84.111C140.839 85.3205 139.415 86.1105 137.796 86.1105C137.669 86.1105 137.537 86.1008 137.41 86.091C134.894 85.8959 132.914 83.794 132.914 81.2288C132.914 78.5368 135.094 76.3519 137.791 76.3519ZM56.0128 104.969C56.1542 104.96 56.2859 104.93 56.4224 104.93C56.7053 104.93 56.9881 104.95 57.271 104.989C60.2068 105.403 74.9931 107.13 79.4211 107.486C80.5818 107.578 81.6303 107.988 82.4837 108.612C83.464 109.329 84.1613 110.339 84.493 111.499C84.6246 111.958 84.7124 112.431 84.7124 112.933V117.908V121.248H115.29V117.908V112.933C115.29 112.431 115.382 111.958 115.514 111.499C115.841 110.339 116.543 109.329 117.518 108.612C118.372 107.988 119.42 107.578 120.581 107.486C125.014 107.13 139.8 105.403 142.731 104.989C143.019 104.95 143.302 104.93 143.58 104.93C143.721 104.93 143.853 104.96 143.989 104.969C144.769 105.028 145.506 105.228 146.174 105.555C146.286 105.54 146.374 105.53 146.423 105.52V82.3115L145.867 41.1117L145.862 40.5558C145.852 40.2388 145.794 39.8877 145.696 39.4975C145.564 39.0342 145.418 38.5807 145.247 38.1369C145.243 38.1174 145.233 38.0979 145.228 38.0783C143.945 34.6743 141.668 31.6945 138.708 29.4366C135.772 47.5004 131.88 71.4312 131.866 71.519C131.812 71.8018 131.768 72.0701 127.057 84.7157C126.94 85.0669 126.779 85.3936 126.569 85.6814C125.331 87.4029 123.331 88.427 121.225 88.427H99.5133H78.7823C76.6707 88.427 74.6712 87.4029 73.4374 85.6814C73.2277 85.3936 73.0619 85.0669 72.9497 84.7157C68.2339 72.0701 68.19 71.8018 68.1412 71.519C68.1266 71.4312 64.235 47.5004 61.2992 29.4366C58.339 31.6945 56.0567 34.6743 54.779 38.0783C54.7692 38.0979 54.7643 38.1174 54.7546 38.1369C54.5888 38.5807 54.4376 39.0342 54.3059 39.4975C54.2084 39.8877 54.1547 40.2388 54.145 40.5558L54.1352 41.1117L53.5842 82.3115V105.52C53.6281 105.53 53.7207 105.54 53.828 105.555C54.4961 105.228 55.2325 105.028 56.0128 104.969Z" fill="white"/>
<path d="M137.408 86.0982C137.534 86.1079 137.661 86.1177 137.788 86.1177H137.793C137.666 86.1177 137.534 86.1079 137.408 86.0982C134.891 85.9031 132.916 83.806 132.916 81.2359C132.916 78.5439 135.101 76.3591 137.793 76.3591H137.788C135.096 76.3591 132.916 78.5439 132.916 81.2359C132.916 83.806 134.891 85.9031 137.408 86.0982Z" fill="white"/>
<path d="M142.669 81.2359C142.669 81.7187 142.596 82.1821 142.464 82.621C142.303 83.1672 142.049 83.6695 141.718 84.1182C140.83 85.3276 139.406 86.1177 137.792 86.1177C139.406 86.1177 140.84 85.3276 141.727 84.1182C142.054 83.6695 142.313 83.1672 142.474 82.621C142.6 82.1821 142.674 81.7187 142.674 81.2359C142.674 79.4705 141.732 77.9246 140.328 77.0711C141.732 77.9246 142.669 79.4705 142.669 81.2359Z" fill="#00459D"/>
</svg>
