<svg width="200" height="200" viewBox="0 0 200 200" fill="none" xmlns="http://www.w3.org/2000/svg">
<path d="M100 200C44.8606 200 0 155.139 0 100C0 44.8606 44.8606 0 100 0C155.139 0 200 44.8606 200 100C200 155.139 155.139 200 100 200Z" fill="#00459D"/>
<path fill-rule="evenodd" clip-rule="evenodd" d="M77.8025 39.6353V39.2967C77.8025 37.4398 79.2895 35.9347 81.1254 35.9347H118.023C119.859 35.9347 121.346 37.4398 121.346 39.2967V39.6353C121.346 41.4923 119.859 42.9973 118.023 42.9973H81.1254C79.2895 42.9973 77.8025 41.4923 77.8025 39.6353ZM147.957 49.837L147.505 41.767C147.211 35.1936 141.163 30 133.802 30H65.1291C57.7619 30 51.7103 35.2021 51.4245 41.7815L50.9793 50.0684C55.7998 49.6671 75.0607 48.1861 97.0324 48.1861C119.111 48.1861 142.287 49.4948 147.957 49.837Z" fill="white"/>
<path fill-rule="evenodd" clip-rule="evenodd" d="M134.502 141.273C130.495 141.273 127.244 137.984 127.244 133.928C127.244 129.872 130.495 126.583 134.502 126.583C138.509 126.583 141.758 129.872 141.758 133.928C141.758 137.984 138.509 141.273 134.502 141.273ZM64.6269 141.288C60.6195 141.288 57.3705 138.001 57.3705 133.944C57.3705 129.888 60.6195 126.6 64.6269 126.6C68.6355 126.6 71.8834 129.888 71.8834 133.944C71.8834 138.001 68.6355 141.288 64.6269 141.288ZM153.134 142.325L148.171 53.6558C147.075 53.5883 144.962 53.463 142.072 53.3099L143.837 114.431C143.86 115.265 143.231 115.962 142.424 115.995C130.417 116.471 113.074 117.014 96.26 117.014C80.9471 117.014 66.7521 116.5 56.5121 115.996C55.7097 115.956 55.087 115.261 55.112 114.431L56.9502 53.4244C53.9095 53.6365 51.763 53.8124 50.7736 53.898L46.0138 142.343C45.7137 147.901 50.3569 152.681 56.5538 153.2C56.8835 153.228 57.2371 153.257 57.58 153.284V164.856C57.58 164.856 57.7824 169.844 62.5077 169.844H66.989C71.7143 169.844 71.9215 164.856 71.9215 164.856V154.237C79.8553 154.652 89.2298 154.96 99.5674 154.96C110.035 154.96 119.513 154.643 127.515 154.222V164.856C127.515 164.856 127.719 169.844 132.442 169.844H136.924C141.649 169.844 141.856 164.856 141.856 164.856V153.261C142.1 153.241 142.357 153.222 142.594 153.201C148.802 152.681 153.446 147.889 153.134 142.325Z" fill="white"/>
<path d="M84.4523 100H78.7323V80.64L74.3323 85.16L71.0923 81.76L79.4923 73.32H84.4523V100ZM88.4577 86.68C88.4577 79.8 91.8577 72.92 99.4977 72.92C107.098 72.92 110.538 79.8 110.538 86.68C110.538 93.56 107.098 100.48 99.4977 100.48C91.8577 100.48 88.4577 93.56 88.4577 86.68ZM104.738 86.68C104.738 81.76 103.298 77.96 99.4977 77.96C95.6577 77.96 94.2177 81.76 94.2177 86.68C94.2177 91.6 95.6577 95.44 99.4977 95.44C103.298 95.44 104.738 91.6 104.738 86.68ZM125.702 100H119.982V80.64L115.582 85.16L112.342 81.76L120.742 73.32H125.702V100Z" fill="white"/>
</svg>
