<svg width="200" height="200" viewBox="0 0 200 200" fill="none" xmlns="http://www.w3.org/2000/svg">
<path d="M200 100C200 155.23 155.227 200 100.002 200C44.7734 200 0 155.23 0 100C0 44.7696 44.7734 0 100.002 0C155.227 0 200 44.7696 200 100Z" fill="#00459D"/>
<path d="M124.907 148.363L138.742 167.479H148.608L130.749 148.363H124.907Z" fill="white"/>
<path d="M75.0994 148.363H69.1254L51.3936 167.479H61.2641L75.0994 148.363Z" fill="white"/>
<path d="M73.3115 154.756H126.546L124.205 151.318H75.6475L73.3115 154.756Z" fill="white"/>
<path d="M129.44 161.092H70.2901L67.9541 164.531H131.776L129.44 161.092Z" fill="white"/>
<path d="M67.3892 144.599C70.4713 145.487 94.8599 145.267 99.9951 145.267C105.13 145.267 129.397 145.487 132.606 144.599C134.274 144.155 137.741 141.707 140.823 139.181H59.1719C62.254 141.595 65.7213 144.155 67.3892 144.599Z" fill="white"/>
<path d="M122.951 50.3563H77.0465C76.9295 50.3563 76.9295 50.2392 76.9295 50.2392L78.4218 44.8456C78.4218 44.7334 78.5388 44.7334 78.5388 44.7334H121.576C121.688 44.7334 121.688 44.8456 121.688 44.8456L123.068 50.2392C123.068 50.3563 122.951 50.3563 122.951 50.3563ZM99.538 30.7323H99.7673H99.9965H100.226H100.455C102.981 30.7323 105.049 32.7951 105.049 35.3213C105.049 37.8475 102.981 39.9103 100.455 39.9103H100.226H99.9965H99.7673H99.538C97.0168 39.9103 94.949 37.8475 94.949 35.3213C94.949 32.683 97.0168 30.7323 99.538 30.7323ZM136.582 34.2387C135.07 33.1121 133.451 32.0783 131.71 31.1517C129.198 29.8203 126.477 28.6743 123.551 27.7477C117.738 25.9092 111.159 24.9143 104.161 24.6412C103.303 24.6022 102.435 24.5778 101.567 24.5583C101.177 24.5535 100.806 24.5193 100.421 24.5193C100.279 24.5193 100.143 24.5291 100.001 24.5291C99.8648 24.5291 99.7282 24.5193 99.5868 24.5193C99.1967 24.5193 98.826 24.5535 98.4408 24.5583C97.5727 24.5778 96.7047 24.6022 95.8464 24.6412C88.8482 24.9143 82.2695 25.9092 76.4564 27.7477C73.5304 28.6743 70.8092 29.8203 68.2976 31.1517C66.5567 32.0783 64.9376 33.1121 63.4258 34.2387L63.4745 34.4289C63.4599 34.4386 63.4404 34.4484 63.4258 34.463L68.9365 56.3059H68.9463H131.061H131.066L136.582 34.463C136.567 34.4484 136.548 34.4386 136.533 34.4289L136.582 34.2387Z" fill="white"/>
<path d="M132.124 123.401C132.124 124.088 131.666 124.547 130.978 124.547H118.352C117.665 124.547 117.206 124.088 117.206 123.401V122.255C117.206 121.567 117.665 121.104 118.352 121.104H130.978C131.666 121.104 132.124 121.567 132.124 122.255V123.401ZM132.124 129.428C132.124 130.116 131.666 130.574 130.978 130.574H118.352C117.665 130.574 117.206 130.116 117.206 129.428V128.282C117.206 127.59 117.665 127.131 118.352 127.131H130.978C131.666 127.131 132.124 127.59 132.124 128.282V129.428ZM82.5473 123.401C82.5473 124.088 82.0889 124.547 81.3964 124.547H68.7754C68.0878 124.547 67.6245 124.088 67.6245 123.401V122.255C67.6245 121.567 68.0878 121.104 68.7754 121.104H81.3964C82.0889 121.104 82.5473 121.567 82.5473 122.255V123.401ZM82.5473 129.428C82.5473 130.116 82.0889 130.574 81.3964 130.574H68.7754C68.0878 130.574 67.6245 130.116 67.6245 129.428V128.282C67.6245 127.59 68.0878 127.131 68.7754 127.131H81.3964C82.0889 127.131 82.5473 127.59 82.5473 128.282V129.428ZM52.5017 116.051C52.3944 125.42 54.1745 131.477 54.1745 131.477C54.1745 131.477 54.9742 135.241 57.6564 137.577H142.224C144.906 135.241 145.706 131.477 145.706 131.477C145.706 131.477 147.486 125.312 147.501 116.051H52.5017Z" fill="white"/>
<path d="M145.664 93.1071H133.892L139.797 80.7638L145.664 68.6106V93.1071ZM132.058 106.957C130.073 106.957 128.464 105.47 128.591 103.485C128.591 101.627 130.2 100.018 132.058 100.018C133.911 100.018 135.525 101.505 135.525 103.485C135.525 105.343 134.038 106.957 132.058 106.957ZM119.856 109.332C117.257 109.332 115.282 107.23 115.155 104.631C115.155 102.037 117.257 99.9347 119.856 99.9347C122.451 99.9347 124.558 102.037 124.558 104.631C124.558 107.23 122.451 109.332 119.856 109.332ZM80.1451 109.332C77.5507 109.332 75.4488 107.23 75.4488 104.631C75.4488 102.037 77.5507 99.9347 80.1451 99.9347C82.7444 99.9347 84.8463 102.037 84.8463 104.631C84.7244 107.23 82.7444 109.332 80.1451 109.332ZM67.9435 106.957C65.9635 106.957 64.481 105.343 64.481 103.485C64.481 101.505 66.0903 100.018 67.9435 100.018C69.8015 100.018 71.4109 101.627 71.4109 103.485C71.5377 105.47 69.9283 106.957 67.9435 106.957ZM54.3423 68.6106L60.209 80.7638L66.1147 93.1071H54.3423V68.6106ZM147.503 93.1071V64.3044C147.634 61.4124 147.761 55.1846 144.937 46.6258C142.367 39.0617 139.802 36.3941 138.773 35.726L133.765 56.4087V56.5209L122.729 93.1071H77.2825L66.2415 56.7452L61.2331 35.726C60.209 36.5063 57.639 39.2861 55.0738 46.6258C52.2453 55.2968 52.2453 61.5246 52.5037 64.4165C52.5037 64.0849 52.377 93.1071 52.377 93.1071C52.377 100.393 52.5038 108.011 52.5086 114.453H147.508C147.508 107.899 147.629 100.286 147.503 93.1071Z" fill="white"/>
</svg>
