<svg width="200" height="200" viewBox="0 0 200 200" fill="none" xmlns="http://www.w3.org/2000/svg">
<path d="M100 199.5C45.1367 199.5 0.5 154.863 0.5 100C0.5 45.1367 45.1367 0.5 100 0.5C154.863 0.5 199.5 45.1367 199.5 100C199.5 154.863 154.863 199.5 100 199.5Z" fill="#682E86" stroke="black"/>
<path d="M88.0653 121H77.6333L69.2493 105.704H62.5933V121H53.5052V78.312H73.4733C82.3693 78.312 87.8093 84.136 87.8093 92.072C87.8093 99.624 83.0732 103.656 78.4653 104.744L88.0653 121ZM78.5293 92.008C78.5293 88.424 75.7773 86.12 72.1293 86.12H62.5933V97.896H72.1293C75.7773 97.896 78.5293 95.592 78.5293 92.008ZM103.718 121H94.6302V78.312H103.718V121ZM135.553 121H124.161L107.649 78.312H118.017L129.857 111.144L141.633 78.312H152.001L135.553 121Z" fill="white"/>
<path d="M45.7788 39.9832C58.5788 28.5368 75.2135 21.4543 92.3397 20.247C102.494 19.6747 112.836 19.943 122.686 22.7152C140.518 27.4368 156.465 38.776 166.878 53.9962C173.859 64.0834 178.337 75.8608 180 88.0048C170.579 89.4445 161.184 91.0095 151.754 92.3687C150.512 80.0995 144.925 68.3043 135.996 59.782C125.904 49.9274 111.701 44.5171 97.6134 45.161C84.7687 45.5276 72.076 50.8931 63.1196 60.1576C54.5833 68.7961 49.5062 80.4841 48.0403 92.476C38.6995 90.9737 29.3587 89.5071 20 88.1121C22.4939 69.6815 31.8078 52.2703 45.7788 39.9832Z" fill="white" fill-opacity="0.1"/>
<path d="M20.7866 116.263C30.1632 114.815 39.5487 113.428 48.9163 111.872C51.5263 127.45 61.5196 141.633 75.5263 148.993C87.352 155.494 101.77 156.961 114.695 153.124C133.394 147.884 148.081 131.224 151.218 112.078C160.577 113.384 169.9 114.958 179.249 116.326C176.255 131.689 168.505 146.078 157.368 157.068C145.086 169.31 128.639 177.278 111.432 179.353C96.4425 180.936 80.8358 179.827 66.9364 173.648C43.276 163.766 25.3721 141.499 20.7866 116.263Z" fill="white" fill-opacity="0.1"/>
</svg>
