<svg width="200" height="200" viewBox="0 0 200 200" fill="none" xmlns="http://www.w3.org/2000/svg">
<path d="M100 199.5C45.1367 199.5 0.5 154.863 0.5 100C0.5 45.1367 45.1367 0.5 100 0.5C154.863 0.5 199.5 45.1367 199.5 100C199.5 154.863 154.863 199.5 100 199.5Z" fill="#FF8400" stroke="black"/>
<path d="M56.2385 99.688C56.2385 86.824 65.6465 77.608 78.5105 77.608C91.4385 77.608 100.847 86.824 100.847 99.688C100.847 112.552 91.4385 121.768 78.5105 121.768C65.6465 121.768 56.2385 112.552 56.2385 99.688ZM91.5025 99.688C91.5025 91.688 86.3825 85.672 78.5105 85.672C70.6385 85.672 65.5825 91.688 65.5825 99.688C65.5825 107.624 70.6385 113.704 78.5105 113.704C86.3825 113.704 91.5025 107.624 91.5025 99.688ZM127.576 121.768C115.096 121.768 105.176 112.808 105.176 99.688C105.176 86.568 115.096 77.608 127.576 77.608C137.304 77.608 142.744 82.728 145.752 88.04L137.944 91.88C136.152 88.424 132.312 85.672 127.576 85.672C120.152 85.672 114.52 91.624 114.52 99.688C114.52 107.752 120.152 113.704 127.576 113.704C132.312 113.704 136.152 111.016 137.944 107.496L145.752 111.272C142.68 116.584 137.304 121.768 127.576 121.768Z" fill="white"/>
<path d="M45.7788 39.9832C58.5788 28.5368 75.2135 21.4543 92.3397 20.247C102.494 19.6747 112.836 19.943 122.686 22.7152C140.518 27.4368 156.465 38.776 166.878 53.9962C173.859 64.0834 178.337 75.8608 180 88.0048C170.579 89.4445 161.184 91.0095 151.754 92.3687C150.512 80.0995 144.925 68.3043 135.996 59.782C125.904 49.9274 111.701 44.5171 97.6134 45.161C84.7687 45.5276 72.076 50.8931 63.1196 60.1576C54.5833 68.7961 49.5062 80.4841 48.0403 92.476C38.6995 90.9737 29.3587 89.5071 20 88.1121C22.4939 69.6815 31.8078 52.2703 45.7788 39.9832Z" fill="white" fill-opacity="0.1"/>
<path d="M20.7866 116.263C30.1632 114.815 39.5487 113.428 48.9163 111.872C51.5263 127.45 61.5196 141.633 75.5263 148.993C87.352 155.494 101.77 156.961 114.695 153.124C133.394 147.884 148.081 131.224 151.218 112.078C160.577 113.384 169.9 114.958 179.249 116.326C176.255 131.689 168.505 146.078 157.368 157.068C145.086 169.31 128.639 177.278 111.432 179.353C96.4425 180.936 80.8358 179.827 66.9364 173.648C43.276 163.766 25.3721 141.499 20.7866 116.263Z" fill="white" fill-opacity="0.1"/>
</svg>
