<svg width="200" height="200" viewBox="0 0 200 200" fill="none" xmlns="http://www.w3.org/2000/svg">
<path d="M100 199.5C45.1367 199.5 0.5 154.863 0.5 100C0.5 45.1367 45.1367 0.5 100 0.5C154.863 0.5 199.5 45.1367 199.5 100C199.5 154.863 154.863 199.5 100 199.5Z" fill="#E92076" stroke="black"/>
<path d="M36.4204 119H28.1844V80.314H36.4204V119ZM71.4765 119H44.1005V80.314H71.4765V87.39H52.3365V95.8H71.0705V102.876H52.3365V111.866H71.4765V119ZM89.7469 108.096H75.8269V101.832H89.7469V108.096ZM93.4476 99.686C93.4476 88.028 101.974 79.676 113.632 79.676C125.348 79.676 133.874 88.028 133.874 99.686C133.874 111.344 125.348 119.696 113.632 119.696C101.974 119.696 93.4476 111.344 93.4476 99.686ZM125.406 99.686C125.406 92.436 120.766 86.984 113.632 86.984C106.498 86.984 101.916 92.436 101.916 99.686C101.916 106.878 106.498 112.388 113.632 112.388C120.766 112.388 125.406 106.878 125.406 99.686ZM158.097 119.696C146.787 119.696 137.797 111.576 137.797 99.686C137.797 87.796 146.787 79.676 158.097 79.676C166.913 79.676 171.843 84.316 174.569 89.13L167.493 92.61C165.869 89.478 162.389 86.984 158.097 86.984C151.369 86.984 146.265 92.378 146.265 99.686C146.265 106.994 151.369 112.388 158.097 112.388C162.389 112.388 165.869 109.952 167.493 106.762L174.569 110.184C171.785 114.998 166.913 119.696 158.097 119.696Z" fill="white"/>
<path d="M45.7788 39.9832C58.5788 28.5368 75.2135 21.4543 92.3397 20.247C102.494 19.6747 112.836 19.943 122.686 22.7152C140.518 27.4368 156.465 38.776 166.878 53.9962C173.859 64.0834 178.337 75.8608 180 88.0048C170.579 89.4445 161.184 91.0095 151.754 92.3687C150.512 80.0995 144.925 68.3043 135.996 59.782C125.904 49.9274 111.701 44.5171 97.6134 45.161C84.7687 45.5276 72.076 50.8931 63.1196 60.1576C54.5833 68.7961 49.5062 80.4841 48.0403 92.476C38.6995 90.9737 29.3587 89.5071 20 88.1121C22.4939 69.6815 31.8078 52.2703 45.7788 39.9832Z" fill="white" fill-opacity="0.1"/>
<path d="M20.7866 116.263C30.1632 114.815 39.5487 113.428 48.9163 111.872C51.5263 127.45 61.5196 141.633 75.5263 148.993C87.352 155.494 101.77 156.961 114.695 153.124C133.394 147.884 148.081 131.224 151.218 112.078C160.577 113.384 169.9 114.958 179.249 116.326C176.255 131.689 168.505 146.078 157.368 157.068C145.086 169.31 128.639 177.278 111.432 179.353C96.4425 180.936 80.8358 179.827 66.9364 173.648C43.276 163.766 25.3721 141.499 20.7866 116.263Z" fill="white" fill-opacity="0.1"/>
</svg>
