<svg width="200" height="200" viewBox="0 0 200 200" fill="none" xmlns="http://www.w3.org/2000/svg">
<path d="M100 199.5C45.1367 199.5 0.5 154.863 0.5 100C0.5 45.1367 45.1367 0.5 100 0.5C154.863 0.5 199.5 45.1367 199.5 100C199.5 154.863 154.863 199.5 100 199.5Z" fill="#A32136" stroke="black"/>
<path d="M61.3738 114.984L66.3658 108.072C69.3738 111.208 74.0458 113.832 79.9338 113.832C84.9258 113.832 87.3578 111.464 87.3578 109.032C87.3578 105.832 83.6458 104.744 78.7178 103.592C71.7418 101.992 62.7818 100.072 62.7818 90.536C62.7818 83.432 68.9258 77.672 78.9738 77.672C85.7578 77.672 91.3898 79.72 95.6138 83.624L90.5578 90.28C87.1018 87.08 82.4938 85.608 78.3338 85.608C74.2378 85.608 72.0618 87.4 72.0618 89.96C72.0618 92.84 75.6458 93.736 80.5738 94.888C87.6138 96.488 96.5738 98.6 96.5738 108.072C96.5738 115.88 91.0058 121.768 79.4858 121.768C71.2938 121.768 65.4058 119.016 61.3738 114.984ZM125.861 121H102.693V78.312H125.157C133.285 78.312 137.445 83.496 137.445 89.192C137.445 94.568 134.117 98.152 130.085 98.984C134.629 99.688 138.277 104.104 138.277 109.48C138.277 115.88 133.989 121 125.861 121ZM111.781 86.056V95.464H123.173C126.245 95.464 128.165 93.48 128.165 90.728C128.165 88.104 126.245 86.056 123.173 86.056H111.781ZM111.781 103.208V113.256H123.493C126.949 113.256 128.997 111.272 128.997 108.2C128.997 105.512 127.077 103.208 123.493 103.208H111.781Z" fill="white"/>
<path d="M45.7788 39.9832C58.5788 28.5368 75.2135 21.4543 92.3397 20.247C102.494 19.6747 112.836 19.943 122.686 22.7152C140.518 27.4368 156.465 38.776 166.878 53.9962C173.859 64.0834 178.337 75.8608 180 88.0048C170.579 89.4445 161.184 91.0095 151.754 92.3687C150.512 80.0995 144.925 68.3043 135.996 59.782C125.904 49.9274 111.701 44.5171 97.6134 45.161C84.7687 45.5276 72.076 50.8931 63.1196 60.1576C54.5833 68.7961 49.5062 80.4841 48.0403 92.476C38.6995 90.9737 29.3587 89.5071 20 88.1121C22.4939 69.6815 31.8078 52.2703 45.7788 39.9832Z" fill="white" fill-opacity="0.1"/>
<path d="M20.7866 116.263C30.1632 114.815 39.5487 113.428 48.9163 111.872C51.5263 127.45 61.5196 141.633 75.5263 148.993C87.352 155.494 101.77 156.961 114.695 153.124C133.394 147.884 148.081 131.224 151.218 112.078C160.577 113.384 169.9 114.958 179.249 116.326C176.255 131.689 168.505 146.078 157.368 157.068C145.086 169.31 128.639 177.278 111.432 179.353C96.4425 180.936 80.8358 179.827 66.9364 173.648C43.276 163.766 25.3721 141.499 20.7866 116.263Z" fill="white" fill-opacity="0.1"/>
</svg>
