<svg width="200" height="200" viewBox="0 0 200 200" fill="none" xmlns="http://www.w3.org/2000/svg">
<path d="M100 199.5C45.1367 199.5 0.5 154.863 0.5 100C0.5 45.1367 45.1367 0.5 100 0.5C154.863 0.5 199.5 45.1367 199.5 100C199.5 154.863 154.863 199.5 100 199.5Z" fill="#FFB81D" stroke="black"/>
<path d="M84.8653 121H73.4733L56.9612 78.312H67.3293L79.1693 111.144L90.9453 78.312H101.313L84.8653 121ZM124.357 121.768C111.877 121.768 101.957 112.808 101.957 99.688C101.957 86.568 111.877 77.608 124.357 77.608C134.085 77.608 139.525 82.728 142.533 88.04L134.725 91.88C132.933 88.424 129.093 85.672 124.357 85.672C116.933 85.672 111.301 91.624 111.301 99.688C111.301 107.752 116.933 113.704 124.357 113.704C129.093 113.704 132.933 111.016 134.725 107.496L142.533 111.272C139.461 116.584 134.085 121.768 124.357 121.768Z" fill="black"/>
<path d="M45.7788 39.9832C58.5788 28.5368 75.2135 21.4543 92.3397 20.247C102.494 19.6747 112.836 19.943 122.686 22.7152C140.518 27.4368 156.465 38.776 166.878 53.9962C173.859 64.0834 178.337 75.8608 180 88.0048C170.579 89.4445 161.184 91.0095 151.754 92.3687C150.512 80.0995 144.925 68.3043 135.996 59.782C125.904 49.9274 111.701 44.5171 97.6134 45.161C84.7687 45.5276 72.076 50.8931 63.1196 60.1576C54.5833 68.7961 49.5062 80.4841 48.0403 92.476C38.6995 90.9737 29.3587 89.5071 20 88.1121C22.4939 69.6815 31.8078 52.2703 45.7788 39.9832Z" fill="black" fill-opacity="0.1"/>
<path d="M20.7866 116.263C30.1632 114.815 39.5487 113.428 48.9163 111.872C51.5263 127.45 61.5196 141.633 75.5263 148.993C87.352 155.494 101.77 156.961 114.695 153.124C133.394 147.884 148.081 131.224 151.218 112.078C160.577 113.384 169.9 114.958 179.249 116.326C176.255 131.689 168.505 146.078 157.368 157.068C145.086 169.31 128.639 177.278 111.432 179.353C96.4425 180.936 80.8358 179.827 66.9364 173.648C43.276 163.766 25.3721 141.499 20.7866 116.263Z" fill="black" fill-opacity="0.1"/>
</svg>
