<svg width="200" height="200" viewBox="0 0 200 200" fill="none" xmlns="http://www.w3.org/2000/svg">
<path d="M100 199.5C45.1367 199.5 0.5 154.863 0.5 100C0.5 45.1367 45.1367 0.5 100 0.5C154.863 0.5 199.5 45.1367 199.5 100C199.5 154.863 154.863 199.5 100 199.5Z" fill="#0071CE" stroke="black"/>
<path d="M27.3548 115.636L31.0088 109.488C33.0968 111.402 35.3008 112.446 38.7228 112.446C44.9288 112.446 48.4088 107.168 48.4088 101.31V100.498C46.5528 103.108 42.6668 105.486 38.4328 105.486C31.4728 105.486 25.2088 101.194 25.2088 92.958C25.2088 85.418 31.2408 79.676 40.0568 79.676C51.7728 79.676 56.7028 88.724 56.7028 99.686C56.7028 111.344 50.1488 119.638 38.7228 119.638C34.0248 119.638 30.0808 118.072 27.3548 115.636ZM48.2928 94.93C48.0028 91.218 45.9148 86.81 40.4048 86.81C35.9968 86.81 33.6188 89.884 33.6188 92.61C33.6188 96.728 37.0408 98.526 40.7528 98.526C43.6528 98.526 46.4948 97.192 48.2928 94.93ZM78.7659 119H70.4719V90.928L64.0919 97.482L59.3939 92.552L71.5739 80.314H78.7659V119ZM87.9376 120.16H82.6016L96.3476 79.154H101.684L87.9376 120.16ZM113.753 119H105.517V80.314H123.613C132.023 80.314 136.605 85.998 136.605 92.784C136.605 99.512 131.965 105.138 123.613 105.138H113.753V119ZM128.195 92.726C128.195 89.536 125.759 87.39 122.511 87.39H113.753V98.062H122.511C125.759 98.062 128.195 95.974 128.195 92.726ZM162.881 119H152.557L137.593 80.314H146.989L157.719 110.068L168.391 80.314H177.787L162.881 119Z" fill="white"/>
<path d="M45.7788 39.9832C58.5788 28.5368 75.2135 21.4543 92.3397 20.247C102.494 19.6747 112.836 19.943 122.686 22.7152C140.518 27.4368 156.465 38.776 166.878 53.9962C173.859 64.0834 178.337 75.8608 180 88.0048C170.579 89.4445 161.184 91.0095 151.754 92.3687C150.512 80.0995 144.925 68.3043 135.996 59.782C125.904 49.9274 111.701 44.5171 97.6134 45.161C84.7687 45.5276 72.076 50.8931 63.1196 60.1576C54.5833 68.7961 49.5062 80.4841 48.0403 92.476C38.6995 90.9737 29.3587 89.5071 20 88.1121C22.4939 69.6815 31.8078 52.2703 45.7788 39.9832Z" fill="white" fill-opacity="0.1"/>
<path d="M20.7866 116.263C30.1632 114.815 39.5487 113.428 48.9163 111.872C51.5263 127.45 61.5196 141.633 75.5263 148.993C87.352 155.494 101.77 156.961 114.695 153.124C133.394 147.884 148.081 131.224 151.218 112.078C160.577 113.384 169.9 114.958 179.249 116.326C176.255 131.689 168.505 146.078 157.368 157.068C145.086 169.31 128.639 177.278 111.432 179.353C96.4425 180.936 80.8358 179.827 66.9364 173.648C43.276 163.766 25.3721 141.499 20.7866 116.263Z" fill="white" fill-opacity="0.1"/>
</svg>
